<svg id="Layer_1" data-name="Layer 1" xmlns="http://www.w3.org/2000/svg" viewBox="0 0 128 128"><defs><style>.cls-2{fill:#c7b198}</style></defs><path d="M106.055 73.611l-37.01 6.875a2.752 2.752 0 01-.55.046 612.282 612.282 0 00-8.99 0 2.752 2.752 0 01-.55-.046l-37.01-6.875a1.26 1.26 0 00-1.488 1.292l1.7 39.7a1.26 1.26 0 001.003 1.179l36.235 7.513A5.118 5.118 0 0064 126.184a5.118 5.118 0 004.605-2.889l36.235-7.513a1.26 1.26 0 001.002-1.18l1.701-39.699a1.26 1.26 0 00-1.488-1.292z" fill="#797a7e"/><path class="cls-2" d="M51.227 27.18l.621.48v3.393a2.452 2.452 0 002.452 2.448h5.91a2.455 2.455 0 002.408-1.977l.606-3.113a3.279 3.279 0 011.541-.05l.616 3.163a2.455 2.455 0 002.407 1.977h5.91a2.449 2.449 0 002.453-2.448V27.66l.625-.48a.613.613 0 00.23-.47v-1.077a.59.59 0 00-.59-.585h-9.284a2.454 2.454 0 00-2.327 1.566 5.056 5.056 0 00-1.601.03 2.42 2.42 0 00-.566-.88 2.514 2.514 0 00-1.772-.716h-9.283a.586.586 0 00-.586.585v1.076a.598.598 0 00.23.47zm15.31-.14a.718.718 0 01.555-.26h6.606a.717.717 0 01.721.715v3.558a.72.72 0 01-.72.721h-5.911a.718.718 0 01-.706-.585l-.695-3.554a.73.73 0 01.15-.595zm-12.957.455a.717.717 0 01.72-.716h6.606a.718.718 0 01.556.26.696.696 0 01.15.596l-.69 3.554a.728.728 0 01-.711.585H54.3a.72.72 0 01-.721-.72zM67.086 38.16h-6.172a1.04 1.04 0 000 2.08h6.172a1.04 1.04 0 000-2.08z"/><path class="cls-2" d="M44.306 22.686l2.702 13.933a17.308 17.308 0 0033.982 0l2.398-12.352.335-1.742A18.26 18.26 0 0075.545 4.75a17.773 17.773 0 00-3.323-1.697 18.162 18.162 0 00-6.596-1.236h-3.253a18.26 18.26 0 00-18.097 20.71zm5.885.345c8.093 0 15.34-1.902 20.22-4.905a24.618 24.618 0 009.253 5.12l-2.452 12.637a13.459 13.459 0 01-26.425 0l-2.502-12.887c.63.025 1.266.035 1.906.035zm18.223 53.245l30.378-5.64-.636-7.843a4.448 4.448 0 00-2.862-3.268l-15.97-5.675-15.325 8.122-15.324-8.122-15.965 5.675a4.454 4.454 0 00-2.868 3.268l-.635 7.842 30.378 5.64a649.6 649.6 0 018.829 0z"/></svg>